<svg xmlns="http://www.w3.org/2000/svg" xmlns:xlink="http://www.w3.org/1999/xlink" version="1.1" baseProfile="tiny" x="0px" y="0px" width="100px" height="100px" viewBox="5.0 -10.0 100.0 135.0" xml:space="preserve">
<g id="Captions">
</g>
<g id="Your_Icon">
	<path fill-rule="evenodd" fill="#000000" d="M46,78l-16,4c-0.961,0.08-2,1.039-2,2v2c0,1,0.939,2,2,2h40c0.859,0,2-0.82,2-2v-2   c-0.039-1.039-1.1-1.961-2-2l-16-4H46z M84,76c5.18,0,6-1.059,6-6V18c0-4.781-1.1-6-6-6H16c-4.859,0-6,1.08-6,6v52   c0,5.02,1.059,6,6,6h26.801h14.398H84z M80,22v44H20V22H80z"/>
</g>
</svg>
