<svg xmlns="http://www.w3.org/2000/svg" xmlns:xlink="http://www.w3.org/1999/xlink" version="1.1" id="Layer_1" x="0px" y="0px" width="100px" height="100px" viewBox="5.0 -10.0 100.0 135.0" enable-background="new 0 0 100 100" xml:space="preserve">
<g>
	<path d="M89.537,48.132C81.475,32.865,66.765,23.75,50.188,23.75c-16.555,0-31.396,9.098-39.7,24.336   c-0.646,1.185-0.65,2.615-0.014,3.804c8.301,15.488,23.1,24.735,39.588,24.735c16.496,0,31.251-9.253,39.471-24.751   C90.154,50.704,90.155,49.303,89.537,48.132z M50.062,68.625c-12.808,0-24.42-6.914-31.454-18.607   c7.037-11.48,18.693-18.268,31.579-18.268c12.872,0,24.4,6.781,31.227,18.248C74.453,61.704,62.875,68.625,50.062,68.625z"/>
	<path d="M50,36.833c-7.168,0-13,5.832-13,13s5.832,13,13,13c7.168,0,13-5.832,13-13S57.168,36.833,50,36.833z M50,54.834   c-2.757,0-5-2.243-5-5c0-2.757,2.243-5,5-5s5,2.243,5,5C55,52.591,52.757,54.834,50,54.834z"/>
</g>
</svg>
